<svg width="34" height="34" viewBox="0 0 34 34" fill="none" xmlns="http://www.w3.org/2000/svg">
<path d="M15.4064 27.3417L6.05635 17.9917C5.91469 17.85 5.8141 17.6965 5.7546 17.5313C5.6951 17.366 5.66583 17.1889 5.66677 17C5.66677 16.8111 5.69652 16.634 5.75602 16.4688C5.81552 16.3035 5.91563 16.15 6.05635 16.0083L15.4064 6.65834C15.6661 6.39862 15.991 6.26309 16.381 6.25175C16.7711 6.24042 17.1073 6.37595 17.3897 6.65834C17.673 6.91806 17.8208 7.24295 17.8331 7.633C17.8454 8.02306 17.7094 8.35928 17.4251 8.64167L10.4834 15.5833H26.3147C26.7161 15.5833 27.0528 15.7193 27.3248 15.9913C27.5968 16.2633 27.7323 16.5996 27.7314 17C27.7314 17.4014 27.5958 17.7381 27.3248 18.0101C27.0537 18.2821 26.717 18.4176 26.3147 18.4167H10.4834L17.4251 25.3583C17.6848 25.6181 17.8208 25.9486 17.8331 26.35C17.8454 26.7514 17.7094 27.0819 17.4251 27.3417C17.1654 27.625 16.8348 27.7667 16.4334 27.7667C16.032 27.7667 15.6897 27.625 15.4064 27.3417Z" fill="black"/>
</svg>
