<svg width="34" height="34" viewBox="0 0 34 34" fill="none" xmlns="http://www.w3.org/2000/svg">
<path d="M26.9167 4.25C27.6958 4.25 28.3631 4.52766 28.9184 5.083C29.4737 5.63833 29.7509 6.30511 29.75 7.08333V12.75H26.9167V7.08333L7.08333 7.08333L7.08333 26.9167L26.9167 26.9167V21.25H29.75V26.9167C29.75 27.6958 29.4723 28.3631 28.917 28.9184C28.3617 29.4737 27.6949 29.7509 26.9167 29.75L7.08333 29.75C6.30416 29.75 5.63692 29.4723 5.08158 28.917C4.52625 28.3617 4.24905 27.6949 4.25 26.9167L4.25 7.08333C4.25 6.30416 4.52766 5.63692 5.083 5.08158C5.63833 4.52625 6.30511 4.24905 7.08333 4.25L26.9167 4.25ZM19.125 9.91666L21.1083 11.9708L17.4958 15.5833L29.75 15.5833L29.75 18.4167H17.4958L21.1083 22.0292L19.125 24.0833L12.0417 17L19.125 9.91666Z" fill="black"/>
</svg>
